<svg xmlns="http://www.w3.org/2000/svg" width="512" height="512" viewBox="0 0 51.2 51.2">
  <path id="ssvg:0001-s1" d="M16.592,12.843,15.6,17.609s6.351-4.927,8.177,1.79c0,0,.334,1.95-2.249.88,0,0-9.578-1.288-6.931,7.516,0,0-.908,1.935,6.931,1.022l1.45-3.158s-.378-2.8-7.378-.963" fill="none" stroke="#231f20" stroke-linecap="round" stroke-linejoin="bevel" stroke-width="2"/>
  <path id="ssvg:0001-s2" d="M29.258,11.712S23.925,18.6,28,16.748s6.164.009,6.164.009.913,4.8-1.711,3.3-6.5,10,4.564,18.679" fill="none" stroke="#231f20" stroke-linecap="round" stroke-linejoin="bevel" stroke-width="2"/>
  <path id="ssvg:0001-s3" d="M28,16.748l-1.367,8.475S26.94,34.511,15.6,38.054" fill="none" stroke="#231f20" stroke-linecap="round" stroke-linejoin="bevel" stroke-width="2"/>
</svg>
