<svg xmlns="http://www.w3.org/2000/svg" width="512" height="512" viewBox="0 0 51.2 51.2">
  <path id="ssvg:0002-s1" d="M13.737,18.655s.508-2.505,4.743-1.487,2.287,2.475,2.287,2.475S14.923,21.242,13.737,18.655Z" fill="none" stroke="#231f20" stroke-linecap="round" stroke-linejoin="round" stroke-width="2"/>
  <path id="ssvg:0002-s2" d="M15.092,24.7s-.584-1.936,2.63-2.275,2.536,2.308,2.536,2.308S17.294,26.8,15.092,24.7Z" fill="none" stroke="#231f20" stroke-linecap="round" stroke-linejoin="round" stroke-width="2"/>
  <path id="ssvg:0002-s3" d="M30.337,19.643s2.033-3.874,6.691-.76c0,0,1.355,2.713-1.694,1.982C35.334,20.865,29.247,20.859,30.337,19.643Z" fill="none" stroke="#231f20" stroke-linecap="round" stroke-linejoin="round" stroke-width="2"/>
  <path id="ssvg:0002-s4" d="M30.206,25.223s.216-2.8,3.561-2.463,2.768,2.463,2.768,2.463A12.941,12.941,0,0,1,30.206,25.223Z" fill="none" stroke="#231f20" stroke-linecap="round" stroke-linejoin="round" stroke-width="2"/>
  <path id="ssvg:0002-s5" d="M25.6,12.843a7.551,7.551,0,0,0,1.354,4.829c1.615,2.072,1.1,5.867,1.1,5.867s.2,3.014-2.7,2.957-2.13-4.408-2.13-4.408.073-3.814,2.408-5.34" fill="none" stroke="#231f20" stroke-linecap="round" stroke-linejoin="round" stroke-width="2"/>
  <line id="ssvg:0002-s6" x1="28.05" y1="23.539" x2="23.223" y2="22.088" fill="none" stroke="#231f20" stroke-linecap="round" stroke-linejoin="round" stroke-width="2"/>
  <path id="ssvg:0002-s7" d="M17.988,25.6s.025,3.749,7.365,3.661c0,0,8.021,1.223,8.037-3.621" fill="none" stroke="#231f20" stroke-linecap="round" stroke-linejoin="round" stroke-width="2"/>
  <line id="ssvg:0002-s8" x1="25.353" y1="27.293" x2="25.001" y2="38.054" fill="none" stroke="#231f20" stroke-linecap="round" stroke-linejoin="round" stroke-width="2"/>
  <path id="ssvg:0002-s9" d="M19.875,38.045s.623-7.51,5.126-7.71c0,0,5.675-1.376,4.828,8.4" fill="none" stroke="#231f20" stroke-linecap="round" stroke-linejoin="round" stroke-width="2"/>
  <line id="ssvg:0002-s10" x1="17.311" y1="12.291" x2="18.48" y2="17.168" fill="none" stroke="#231f20" stroke-linecap="round" stroke-linejoin="round" stroke-width="2"/>
  <line id="ssvg:0002-s11" x1="17.475" y1="20.05" x2="17.722" y2="22.421" fill="none" stroke="#231f20" stroke-linecap="round" stroke-linejoin="round" stroke-width="2"/>
  <line id="ssvg:0002-s12" x1="34.656" y1="12.843" x2="34.249" y2="17.717" fill="none" stroke="#231f20" stroke-linecap="round" stroke-linejoin="round" stroke-width="2"/>
  <line id="ssvg:0002-s13" x1="33.767" y1="20.816" x2="33.39" y2="22.731" fill="none" stroke="#231f20" stroke-linecap="round" stroke-linejoin="round" stroke-width="2"/>
</svg>
