<svg xmlns="http://www.w3.org/2000/svg" width="512" height="512" viewBox="0 0 51.2 51.2">
  <path id="ssvg:0003-s1" d="M15.993,14.26s3.557,6.513-3.812,24.473" fill="none" stroke="#231f20" stroke-linecap="round" stroke-linejoin="round" stroke-width="2"/>
  <path id="ssvg:0003-s2" d="M16.411,15.471s7.014-.131,8.92-1.211" fill="none" stroke="#231f20" stroke-linecap="round" stroke-linejoin="round" stroke-width="2"/>
  <line id="ssvg:0003-s3" x1="16.851" y1="19.643" x2="25.331" y2="18.124" fill="none" stroke="#231f20" stroke-linecap="round" stroke-linejoin="round" stroke-width="2"/>
  <path id="ssvg:0003-s4" d="M25.331,12.291s3.751,12.015-8.8,11.5" fill="none" stroke="#231f20" stroke-linecap="round" stroke-linejoin="round" stroke-width="2"/>
  <path id="ssvg:0003-s5" d="M38.67,15.471S37,28.362,38.437,36.239" fill="none" stroke="#231f20" stroke-linecap="round" stroke-linejoin="round" stroke-width="2"/>
  <path id="ssvg:0003-s6" d="M38.582,16.212s-5.819-.364-8.043-1.634" fill="none" stroke="#231f20" stroke-linecap="round" stroke-linejoin="round" stroke-width="2"/>
  <path id="ssvg:0003-s7" d="M38.21,20.05S32.445,19,30.539,17.168" fill="none" stroke="#231f20" stroke-linecap="round" stroke-linejoin="round" stroke-width="2"/>
  <path id="ssvg:0003-s8" d="M30.539,12.863s-3.668,11.348,7.314,10.946" fill="none" stroke="#231f20" stroke-linecap="round" stroke-linejoin="round" stroke-width="2"/>
  <path id="ssvg:0003-s9" d="M26.665,32.809s-4.129-2.08-1.906-6.313c0,0,3.24-4.019,5.78.8S27.446,37.446,24.1,36.938" fill="none" stroke="#231f20" stroke-linecap="round" stroke-linejoin="round" stroke-width="2"/>
  <path id="ssvg:0003-s10" d="M26.934,28.108s1.39,1.19,1.446,2.1" fill="none" stroke="#231f20" stroke-linecap="round" stroke-linejoin="round" stroke-width="2"/>
</svg>
