<svg xmlns="http://www.w3.org/2000/svg" width="512" height="512" viewBox="0 0 51.2 51.2">
  <path id="ssvg:0004-s1" d="M14.139,29.841s2.975-13.4,10.756-13.7c1.012-.038.705-2.865.705-2.865a17.3,17.3,0,0,1-5.9-1.648" fill="none" stroke="#231f20" stroke-linecap="round" stroke-linejoin="round" stroke-width="2"/>
  <path id="ssvg:0004-s2" d="M24.9,16.144s9.735,1.82,9.711,4.893c0,0,2.248,5.425,2.411,8.8" fill="none" stroke="#231f20" stroke-linecap="round" stroke-linejoin="round" stroke-width="2"/>
  <path id="ssvg:0004-s3" d="M20.67,20.736s11.208-2.2,11.071,1.334c0,0,.728,3.27-12.783,3.4" fill="none" stroke="#231f20" stroke-linecap="round" stroke-linejoin="round" stroke-width="2"/>
  <path id="ssvg:0004-s4" d="M19.891,22.992s8.771-1.821,10.724.612c0,0-2.119,3.05,4.742,15.713" fill="none" stroke="#231f20" stroke-linecap="round" stroke-linejoin="round" stroke-width="2"/>
  <path id="ssvg:0004-s5" d="M24.317,25.2s2.262,4.477-2.408,5.228c0,0-1.533.962-.107,2.867s3.551,0,3.551,0,2.276-3.266,1.85-5.976l3.946,2.518" fill="none" stroke="#231f20" stroke-linecap="round" stroke-linejoin="round" stroke-width="2"/>
</svg>
