<svg xmlns="http://www.w3.org/2000/svg" width="512" height="512" viewBox="0 0 51.2 51.2">
  <path id="ssvg:0008-s1" d="M17.161,20.321s-1.64-2.552,10.37-2.074c0,0,3.715-.268,1.984,2.074,0,0-7.4.074-8.713.611S17.456,22.1,17.161,20.321Z" fill="none" stroke="#231f20" stroke-linecap="round" stroke-linejoin="round" stroke-width="2"/>
  <path id="ssvg:0008-s2" d="M23.53,17.889c-3.836-1.8-3.5-7.162-3.5-7.162" fill="none" stroke="#231f20" stroke-linecap="round" stroke-linejoin="round" stroke-width="2"/>
  <path id="ssvg:0008-s3" d="M23.783,18.2c-.456-1.493-.253-7.946-.253-7.946" fill="none" stroke="#231f20" stroke-linecap="round" stroke-linejoin="round" stroke-width="2"/>
  <path id="ssvg:0008-s4" d="M26.745,10.25s.394,4.834-2.506,6.863" fill="none" stroke="#231f20" stroke-linecap="round" stroke-linejoin="round" stroke-width="2"/>
  <path id="ssvg:0008-s5" d="M14.714,24.784s8.415-2.824,14.8-1.547c0,0,4.987.321,2.136,4.141,0,0-.991,1.731-7.412,1.134,0,0-3.139-1.313-10.122,2.208" fill="none" stroke="#231f20" stroke-linecap="round" stroke-linejoin="round" stroke-width="2"/>
  <path id="ssvg:0008-s6" d="M15.49,26.962s12.925-3.284,16.161.416c0,0,.311,3.882,5.981,8.625" fill="none" stroke="#231f20" stroke-linecap="round" stroke-linejoin="round" stroke-width="2"/>
  <path id="ssvg:0008-s7" d="M23.634,20.536S27.369,34.1,16.148,41.421" fill="none" stroke="#231f20" stroke-linecap="round" stroke-linejoin="round" stroke-width="2"/>
</svg>
