<svg xmlns="http://www.w3.org/2000/svg" width="512" height="512" viewBox="0 0 51.2 51.2">
  <path id="ssvg:0010-s1" d="M15,22.828s9.875-1.628,17.471,0" fill="none" stroke="#231f20" stroke-linecap="round" stroke-linejoin="round" stroke-width="2"/>
  <path id="ssvg:0010-s2" d="M20.951,11.592s-3.891,5.365,0,10.622" fill="none" stroke="#231f20" stroke-linecap="round" stroke-linejoin="round" stroke-width="2"/>
  <path id="ssvg:0010-s3" d="M25.179,10.55S22.4,14.907,23.322,22.214" fill="none" stroke="#231f20" stroke-linecap="round" stroke-linejoin="round" stroke-width="2"/>
  <path id="ssvg:0010-s4" d="M31.08,10.55s-4.178,3.145-4.3,7.7c0,0-1.314,2.238-3.506-1.35" fill="none" stroke="#231f20" stroke-linecap="round" stroke-linejoin="round" stroke-width="2"/>
  <path id="ssvg:0010-s5" d="M21.933,22.164l-.982,3.085s-3.771-.143-3.341,3.2c0,0-.71,1.289,3.341.545,0,0-1.6,12.653,15.787,11.652" fill="none" stroke="#231f20" stroke-linecap="round" stroke-linejoin="round" stroke-width="2"/>
  <path id="ssvg:0010-s6" d="M25.179,22.164v2.623s5.771,1.739,3.5,3.346-4.937-.512-4.937-.512,2.089,4.558-1.8,5.444" fill="none" stroke="#231f20" stroke-linecap="round" stroke-linejoin="round" stroke-width="2"/>
</svg>
