<svg xmlns="http://www.w3.org/2000/svg" width="512" height="512" viewBox="0 0 51.2 51.2">
  <path id="ssvg:0011-s1" d="M22.249,11.592s-7.845,1.822-2.06,6.995" fill="none" stroke="#231f20" stroke-linecap="round" stroke-linejoin="round" stroke-width="2"/>
  <path id="ssvg:0011-s2" d="M26.411,11.592s7.27,1.21,2.535,5.856" fill="none" stroke="#231f20" stroke-linecap="round" stroke-linejoin="round" stroke-width="2"/>
  <path id="ssvg:0011-s3" d="M19.084,17.448s2.4-2.951,4.087-3.591" fill="none" stroke="#231f20" stroke-linecap="round" stroke-linejoin="round" stroke-width="2"/>
  <line id="ssvg:0011-s4" x1="29.815" y1="16.463" x2="26.22" y2="14.155" fill="none" stroke="#231f20" stroke-linecap="round" stroke-linejoin="round" stroke-width="2"/>
  <line id="ssvg:0011-s5" x1="25.9" y1="16.565" x2="28.864" y2="18.164" fill="none" stroke="#231f20" stroke-linecap="round" stroke-linejoin="round" stroke-width="2"/>
  <line id="ssvg:0011-s6" x1="20.698" y1="18.587" x2="23.448" y2="16.565" fill="none" stroke="#231f20" stroke-linecap="round" stroke-linejoin="round" stroke-width="2"/>
  <path id="ssvg:0011-s7" d="M24.041,18.441a4.114,4.114,0,0,1-4.365,1.471s-4.713,3.2-.406,5.543c0,0,5.991-.682,8.976,0s2.7-5.72,0-5.543A5.435,5.435,0,0,1,24.041,18.441Z" fill="none" stroke="#231f20" stroke-linecap="round" stroke-linejoin="round" stroke-width="2"/>
  <path id="ssvg:0011-s8" d="M19.6,19.967a5.84,5.84,0,0,0,4.213,2.007c2.857.177,4.435,3.481,4.435,3.481" fill="none" stroke="#231f20" stroke-linecap="round" stroke-linejoin="round" stroke-width="2"/>
  <path id="ssvg:0011-s9" d="M20.424,25.345s1.294-3.356,3.13-3.393,4.692-2.04,4.692-2.04" fill="none" stroke="#231f20" stroke-linecap="round" stroke-linejoin="round" stroke-width="2"/>
  <path id="ssvg:0011-s10" d="M13.726,29.89s3.6,2.132,8.656-1.556c0,0,7.249-.555,9.979-2.644" fill="none" stroke="#231f20" stroke-linecap="round" stroke-linejoin="round" stroke-width="2"/>
  <path id="ssvg:0011-s11" d="M14.408,23.984s-.234,4.5,4.158,3.881c0,0,2.864-.628.483,4.306a1.756,1.756,0,0,1-1.082.928,10.148,10.148,0,0,1-4.923.181" fill="none" stroke="#231f20" stroke-linecap="round" stroke-linejoin="round" stroke-width="2"/>
  <path id="ssvg:0011-s12" d="M23.735,25.162a5.231,5.231,0,0,1,0,5.541c-1.822,2.859-2.777,2.164-1.486,3.822s2.733,0,2.733,0S28.6,27.7,29.3,27.734s4.529.917,2.524,3.651.223,7.411,5.977,8.6" fill="none" stroke="#231f20" stroke-linecap="round" stroke-linejoin="round" stroke-width="2"/>
</svg>
