<svg xmlns="http://www.w3.org/2000/svg" width="512" height="512" viewBox="0 0 51.2 51.2">
  <path id="ssvg:0012-s1" d="M14.5,14.746s-2.233,1.518-.382,8.846c0,0,.01,8.538-3.286,13.845" fill="none" stroke="#231f20" stroke-linecap="round" stroke-linejoin="round" stroke-width="2"/>
  <path id="ssvg:0012-s2" d="M13.516,20.491s12.53-1.913,19.523-.576" fill="none" stroke="#231f20" stroke-linecap="round" stroke-linejoin="round" stroke-width="2"/>
  <path id="ssvg:0012-s3" d="M14.117,23.592s12.443-1.567,18.922-.822" fill="none" stroke="#231f20" stroke-linecap="round" stroke-linejoin="round" stroke-width="2"/>
  <path id="ssvg:0012-s4" d="M17.854,23.187s-2.053,6.5-.17,8.2h3.94s2.934-1.428.542-8.557" fill="none" stroke="#231f20" stroke-linecap="round" stroke-linejoin="round" stroke-width="2"/>
  <line id="ssvg:0012-s5" x1="16.906" y1="28.133" x2="23.104" y2="27.614" fill="none" stroke="#231f20" stroke-linecap="round" stroke-linejoin="round" stroke-width="2"/>
  <path id="ssvg:0012-s6" d="M25.349,10.55s-3.907,18.4,14.077,27.61" fill="none" stroke="#231f20" stroke-linecap="round" stroke-linejoin="round" stroke-width="2"/>
  <path id="ssvg:0012-s7" d="M25.112,17.448s3.8-2.572,7.1-2.366" fill="none" stroke="#231f20" stroke-linecap="round" stroke-linejoin="round" stroke-width="2"/>
  <path id="ssvg:0012-s8" d="M33.039,25.249s-4.758-.524-5.87.351-1.821,10.358,1,15.6" fill="none" stroke="#231f20" stroke-linecap="round" stroke-linejoin="round" stroke-width="2"/>
</svg>
