<svg xmlns="http://www.w3.org/2000/svg" width="512" height="512" viewBox="0 0 51.2 51.2">
  <path id="ssvg:0013-s1" d="M14.3,29.923s1.93-14.365,5.842-15.545,5.95-1.873,6.165-.373.214,10.879.214,10.879" fill="none" stroke="#231f20" stroke-linecap="round" stroke-linejoin="round" stroke-width="2"/>
  <path id="ssvg:0013-s2" d="M22.39,13.708s1.638,6.684,2.2,7.974" fill="none" stroke="#231f20" stroke-linecap="round" stroke-linejoin="round" stroke-width="2"/>
  <path id="ssvg:0013-s3" d="M29.633,10.787s1.125,7.4-2.466,10.452" fill="none" stroke="#231f20" stroke-linecap="round" stroke-linejoin="round" stroke-width="2"/>
  <path id="ssvg:0013-s4" d="M16.929,29.923s6.018-9.244,9.6-8.684,8.415,4.61,9.059,5.575" fill="none" stroke="#231f20" stroke-linecap="round" stroke-linejoin="round" stroke-width="2"/>
  <path id="ssvg:0013-s5" d="M23.044,25.4a2.983,2.983,0,0,0,2.867-.192c1.2-.965,4.258.268,4.472.8s.375,1.661-1.608,1.554a11.008,11.008,0,0,0-2.251-.023s.911,9.939,2.787,12.78" fill="none" stroke="#231f20" stroke-linecap="round" stroke-linejoin="round" stroke-width="2"/>
  <path id="ssvg:0013-s6" d="M24.329,25.63s.954,4.646-3.655,3.789" fill="none" stroke="#231f20" stroke-linecap="round" stroke-linejoin="round" stroke-width="2"/>
  <path id="ssvg:0013-s7" d="M18.805,32.585s7.933-2.555,14.312-.572" fill="none" stroke="#231f20" stroke-linecap="round" stroke-linejoin="round" stroke-width="2"/>
</svg>
