<svg xmlns="http://www.w3.org/2000/svg" width="512" height="512" viewBox="0 0 51.2 51.2">
  <path id="ssvg:0014-s1" d="M13.044,18.854a27.824,27.824,0,0,1,10.679-.823" fill="none" stroke="#231f20" stroke-linecap="round" stroke-linejoin="round" stroke-width="2"/>
  <line id="ssvg:0014-s2" x1="17.708" y1="17.974" x2="17.455" y2="30.279" fill="none" stroke="#231f20" stroke-linecap="round" stroke-linejoin="round" stroke-width="2"/>
  <path id="ssvg:0014-s3" d="M14.665,22.329s-2.837,7.261.914,7.95a27.359,27.359,0,0,0,8.756-.368" fill="none" stroke="#231f20" stroke-linecap="round" stroke-linejoin="round" stroke-width="2"/>
  <path id="ssvg:0014-s4" d="M17.517,27.277s2.749.794,3.33-2.446,1.347-6.964,1.347-6.964" fill="none" stroke="#231f20" stroke-linecap="round" stroke-linejoin="round" stroke-width="2"/>
  <path id="ssvg:0014-s5" d="M28.4,11.593s.061,6.848-.826,8.56c0,0,7.422-1.135,6.818,2.462s-1.926,4.479-8.407,3.806" fill="none" stroke="#231f20" stroke-linecap="round" stroke-linejoin="round" stroke-width="2"/>
  <line id="ssvg:0014-s6" x1="28.263" y1="16.175" x2="35.064" y2="16.759" fill="none" stroke="#231f20" stroke-linecap="round" stroke-linejoin="round" stroke-width="2"/>
  <path id="ssvg:0014-s7" d="M24.944,23.333s4.249-.191,5.442.275c0,0-.336,8.683,7.674,15.928" fill="none" stroke="#231f20" stroke-linecap="round" stroke-linejoin="round" stroke-width="2"/>
</svg>
