<svg xmlns="http://www.w3.org/2000/svg" width="512" height="512" viewBox="0 0 51.2 51.2">
  <path id="ssvg:0015-s1" d="M15.3,16.467s8.814-4.52,9.135-5.86c0,0,5.407,8.437-1.207,10.694s-8.4,10.114-8.4,10.114" fill="none" stroke="#231f20" stroke-linecap="round" stroke-linejoin="round" stroke-width="2"/>
  <path id="ssvg:0015-s2" d="M18.609,17.784s8.452-3.1,15.487,0" fill="none" stroke="#231f20" stroke-linecap="round" stroke-linejoin="round" stroke-width="2"/>
  <path id="ssvg:0015-s3" d="M18.031,20.978s6.458-2.669,15.75-.412" fill="none" stroke="#231f20" stroke-linecap="round" stroke-linejoin="round" stroke-width="2"/>
  <path id="ssvg:0015-s4" d="M27.22,19.673s7.3,5.244,7.506,11.742" fill="none" stroke="#231f20" stroke-linecap="round" stroke-linejoin="round" stroke-width="2"/>
  <path id="ssvg:0015-s5" d="M26.761,15.474l2.771-4.867s.836,1.979,7.346,4.552" fill="none" stroke="#231f20" stroke-linecap="round" stroke-linejoin="round" stroke-width="2"/>
  <path id="ssvg:0015-s6" d="M22.778,22.351a21.019,21.019,0,0,0,6.068,1.207" fill="none" stroke="#231f20" stroke-linecap="round" stroke-linejoin="round" stroke-width="2"/>
  <line id="ssvg:0015-s7" x1="25.524" y1="23.133" x2="25.524" y2="26.236" fill="none" stroke="#231f20" stroke-linecap="round" stroke-linejoin="round" stroke-width="2"/>
  <path id="ssvg:0015-s8" d="M22.336,25.6s1.575,1.055,6.037,1.029c0,0,3.416.4.921,3.282s-3.482,1.89-3.482,1.89S20.394,32.051,22.336,25.6Z" fill="none" stroke="#231f20" stroke-linecap="round" stroke-linejoin="round" stroke-width="2"/>
  <line id="ssvg:0015-s9" x1="24.856" y1="29.029" x2="26.518" y2="29.029" fill="none" stroke="#231f20" stroke-linecap="round" stroke-linejoin="round" stroke-width="2"/>
  <path id="ssvg:0015-s10" d="M26.352,31.964s-1.076,7.239,8.374,6.819" fill="none" stroke="#231f20" stroke-linecap="round" stroke-linejoin="round" stroke-width="2"/>
  <path id="ssvg:0015-s11" d="M25.524,32.746s-5.34,7.717,8.257,8.5" fill="none" stroke="#231f20" stroke-linecap="round" stroke-linejoin="round" stroke-width="2"/>
</svg>
