<svg xmlns="http://www.w3.org/2000/svg" width="512" height="512" viewBox="0 0 51.2 51.2">
  <path id="ssvg:0016-s1" d="M19,11.821s.966,7.028-2.074,6.782-3.114,12.267,1.876,3.253c0,0-2.128,9.317,1.227,18.178" fill="none" stroke="#231f20" stroke-linecap="round" stroke-linejoin="round" stroke-width="2"/>
  <path id="ssvg:0016-s2" d="M21.447,11.821s-.709,5.751,1.6,6.8,1.977,5.747.445,5.7-2.883-.032-3.076-4.428L20.78,28" fill="none" stroke="#231f20" stroke-linecap="round" stroke-linejoin="round" stroke-width="2"/>
  <line id="ssvg:0016-s3" x1="18.654" y1="27.128" x2="20.099" y2="27.996" fill="none" stroke="#231f20" stroke-linecap="round" stroke-linejoin="round" stroke-width="2"/>
  <path id="ssvg:0016-s4" d="M26.524,19.322s4.454-3.327,3.263-8.58c0,0,.45,5.062,2.591,5.062s1.835,3.518-1.312,3.518c0,0-7.645,2.149-5.466,20.712" fill="none" stroke="#231f20" stroke-linecap="round" stroke-linejoin="round" stroke-width="2"/>
  <path id="ssvg:0016-s5" d="M30.505,17.1s1.376,9.346,1.01,12.5" fill="none" stroke="#231f20" stroke-linecap="round" stroke-linejoin="round" stroke-width="2"/>
  <path id="ssvg:0016-s6" d="M26.775,19.762a18.517,18.517,0,0,0,9.685,4.266" fill="none" stroke="#231f20" stroke-linecap="round" stroke-linejoin="round" stroke-width="2"/>
  <path id="ssvg:0016-s7" d="M27.677,23.292s4.468,3.309,8.464,3.783" fill="none" stroke="#231f20" stroke-linecap="round" stroke-linejoin="round" stroke-width="2"/>
  <path id="ssvg:0016-s8" d="M26.775,26.528A74.652,74.652,0,0,1,35.1,29.6" fill="none" stroke="#231f20" stroke-linecap="round" stroke-linejoin="round" stroke-width="2"/>
  <path id="ssvg:0016-s9" d="M25.961,29.6a74.388,74.388,0,0,1,10.5,3.073" fill="none" stroke="#231f20" stroke-linecap="round" stroke-linejoin="round" stroke-width="2"/>
</svg>
