<svg xmlns="http://www.w3.org/2000/svg" width="512" height="512" viewBox="0 0 51.2 51.2">
  <path id="ssvg:0017-s1" d="M24.229,14.417s-3.649.743-5.243,0-7.346,1.533-5.349,6.822-3.314,12.385-3.314,12.385" fill="none" stroke="#231f20" stroke-linecap="round" stroke-linejoin="round" stroke-width="2"/>
  <path id="ssvg:0017-s2" d="M17.909,14.417s-1.231,6.843,2.23,6.822,2.105-6.547,2.105-6.547" fill="none" stroke="#231f20" stroke-linecap="round" stroke-linejoin="round" stroke-width="2"/>
  <line id="ssvg:0017-s3" x1="15.713" y1="24.028" x2="23.723" y2="22.808" fill="none" stroke="#231f20" stroke-linecap="round" stroke-linejoin="round" stroke-width="2"/>
  <path id="ssvg:0017-s4" d="M17.14,26.528a3.614,3.614,0,0,0,2.578,4.026c3.065.876,3.644-4.319,3.644-4.319" fill="none" stroke="#231f20" stroke-linecap="round" stroke-linejoin="round" stroke-width="2"/>
  <line id="ssvg:0017-s5" x1="19.795" y1="23.353" x2="20.564" y2="36.034" fill="none" stroke="#231f20" stroke-linecap="round" stroke-linejoin="round" stroke-width="2"/>
  <path id="ssvg:0017-s6" d="M32.682,10.742s1.83,4.608,0,4.631S25.6,17.828,25.6,17.828" fill="none" stroke="#231f20" stroke-linecap="round" stroke-linejoin="round" stroke-width="2"/>
  <path id="ssvg:0017-s7" d="M34.026,16.523s.526,1.488-1.344,1.3-5.567,1.9-6.7,3.411" fill="none" stroke="#231f20" stroke-linecap="round" stroke-linejoin="round" stroke-width="2"/>
  <path id="ssvg:0017-s8" d="M34.094,19.909s-6.64,3.052-8.343,4.44" fill="none" stroke="#231f20" stroke-linecap="round" stroke-linejoin="round" stroke-width="2"/>
  <path id="ssvg:0017-s9" d="M29.405,22.808s-1.161,6.626-4.453,8.237" fill="none" stroke="#231f20" stroke-linecap="round" stroke-linejoin="round" stroke-width="2"/>
  <path id="ssvg:0017-s10" d="M29.405,23.418S33.711,24.767,30.851,28s1.634,9.439,8.272,12.462" fill="none" stroke="#231f20" stroke-linecap="round" stroke-linejoin="round" stroke-width="2"/>
</svg>
