<svg xmlns="http://www.w3.org/2000/svg" width="512" height="512" viewBox="0 0 51.2 51.2">
  <path id="ssvg:0018-s1" d="M13.723,27.075a15.069,15.069,0,0,1,.236-10.552s6.969-1.948,6.9,2.08a17.225,17.225,0,0,0,1.054,6.6" fill="none" stroke="#231f20" stroke-linecap="round" stroke-linejoin="round" stroke-width="2"/>
  <line id="ssvg:0018-s2" x1="13.723" y1="20.502" x2="19.626" y2="20.502" fill="none" stroke="#231f20" stroke-linecap="round" stroke-linejoin="round" stroke-width="2"/>
  <line id="ssvg:0018-s3" x1="13.408" y1="23.952" x2="19.626" y2="23.418" fill="none" stroke="#231f20" stroke-linecap="round" stroke-linejoin="round" stroke-width="2"/>
  <path id="ssvg:0018-s4" d="M14.191,27.075s4.464,1.13,6.671-1.475" fill="none" stroke="#231f20" stroke-linecap="round" stroke-linejoin="round" stroke-width="2"/>
  <polyline id="ssvg:0018-s5" points="23.591 23.685 26.518 18.881 29.294 23.685" fill="none" stroke="#231f20" stroke-linecap="round" stroke-linejoin="round" stroke-width="2"/>
  <polyline id="ssvg:0018-s6" points="21.362 30.554 26.315 23.952 29.294 27.319" fill="none" stroke="#231f20" stroke-linecap="round" stroke-linejoin="round" stroke-width="2"/>
  <path id="ssvg:0018-s7" d="M35.966,11.719s-.356,1.412-2.884,2.7-3.788,1.716-3.788,5.492,1.667,15.083.646,19.174" fill="none" stroke="#231f20" stroke-linecap="round" stroke-linejoin="round" stroke-width="2"/>
  <polyline id="ssvg:0018-s8" points="30.52 22.808 33.082 18.881 39.128 24.916" fill="none" stroke="#231f20" stroke-linecap="round" stroke-linejoin="round" stroke-width="2"/>
  <polyline id="ssvg:0018-s9" points="30.689 27.026 32.63 24.349 38.401 29.51" fill="none" stroke="#231f20" stroke-linecap="round" stroke-linejoin="round" stroke-width="2"/>
</svg>
