<svg xmlns="http://www.w3.org/2000/svg" width="512" height="512" viewBox="0 0 51.2 51.2">
  <path id="ssvg:0019-s1" d="M17.59,10.867s-1.454,6.391,2.843,6.576,2.98-6.115,2.98-6.115" fill="none" stroke="#231f20" stroke-linecap="round" stroke-linejoin="round" stroke-width="2"/>
  <path id="ssvg:0019-s2" d="M27.249,10.867s-1.964,7.446,3.208,6.58,3.879-5.792,3.879-5.792" fill="none" stroke="#231f20" stroke-linecap="round" stroke-linejoin="round" stroke-width="2"/>
  <line id="ssvg:0019-s3" x1="20.997" y1="11.054" x2="20.4" y2="19.044" fill="none" stroke="#231f20" stroke-linecap="round" stroke-linejoin="round" stroke-width="2"/>
  <line id="ssvg:0019-s4" x1="30.681" y1="11.347" x2="30.681" y2="19.939" fill="none" stroke="#231f20" stroke-linecap="round" stroke-linejoin="round" stroke-width="2"/>
  <path id="ssvg:0019-s5" d="M21,19.8s-2.895,1.225-.6,5.466" fill="none" stroke="#231f20" stroke-linecap="round" stroke-linejoin="round" stroke-width="2"/>
  <path id="ssvg:0019-s6" d="M21.59,19.8s11.248-.646,10.591,2.94-1.474,2.971-1.474,2.971" fill="none" stroke="#231f20" stroke-linecap="round" stroke-linejoin="round" stroke-width="2"/>
  <line id="ssvg:0019-s7" x1="22.23" y1="22.536" x2="28.664" y2="23.046" fill="none" stroke="#231f20" stroke-linecap="round" stroke-linejoin="round" stroke-width="2"/>
  <path id="ssvg:0019-s8" d="M21.039,25.269s6.666.007,8.85.6" fill="none" stroke="#231f20" stroke-linecap="round" stroke-linejoin="round" stroke-width="2"/>
  <path id="ssvg:0019-s9" d="M19.251,26.165s-.8,3.962,2.339,3.9,2.956-3.534,2.956-3.534" fill="none" stroke="#231f20" stroke-linecap="round" stroke-linejoin="round" stroke-width="2"/>
  <path id="ssvg:0019-s10" d="M26.883,26.925s-1.016,3.45,2.88,3.141,2.446-3.141,2.446-3.141" fill="none" stroke="#231f20" stroke-linecap="round" stroke-linejoin="round" stroke-width="2"/>
  <path id="ssvg:0019-s11" d="M21.59,26.925s-.346,6.958-4.237,11.884" fill="none" stroke="#231f20" stroke-linecap="round" stroke-linejoin="round" stroke-width="2"/>
  <path id="ssvg:0019-s12" d="M29.287,26.925s-.7,5.124,5.193,12.506" fill="none" stroke="#231f20" stroke-linecap="round" stroke-linejoin="round" stroke-width="2"/>
</svg>
