<svg xmlns="http://www.w3.org/2000/svg" width="512" height="512" viewBox="0 0 51.2 51.2">
  <path id="ssvg:0020-s1" d="M32.682,11.234s.448,2.221-3.656,2.456S18.914,16.6,17.909,20.626a5.057,5.057,0,0,0,3.422,6.2" fill="none" stroke="#231f20" stroke-linecap="round" stroke-linejoin="round" stroke-width="2"/>
  <path id="ssvg:0020-s2" d="M16.554,11.963s4.649,4.616,5.4,7.976,2.273,4.088,2.273,4.088S26.468,25,25.6,26.821a4.085,4.085,0,0,1-2.238,2.226S20.138,35.4,28.264,40" fill="none" stroke="#231f20" stroke-linecap="round" stroke-linejoin="round" stroke-width="2"/>
  <path id="ssvg:0020-s3" d="M24.768,15.93s2.215,2.24.442,3.873-4.747,1.39-5.568,2.929-3.088,13.86-3.088,13.86" fill="none" stroke="#231f20" stroke-linecap="round" stroke-linejoin="round" stroke-width="2"/>
  <path id="ssvg:0020-s4" d="M29.405,19.028s-2.062,8.446,2.26,8.342,3.188-7.431,3.188-7.431" fill="none" stroke="#231f20" stroke-linecap="round" stroke-linejoin="round" stroke-width="2"/>
  <line id="ssvg:0020-s5" x1="29.405" y1="23.199" x2="34.264" y2="23.393" fill="none" stroke="#231f20" stroke-linecap="round" stroke-linejoin="round" stroke-width="2"/>
</svg>
