<svg xmlns="http://www.w3.org/2000/svg" width="512" height="512" viewBox="0 0 51.2 51.2">
  <path id="ssvg:0021-s1" d="M15.334,13.34s18.985-2.365,18.622,2.105-2.429,4.048-2.429,4.048" fill="none" stroke="#231f20" stroke-linecap="round" stroke-linejoin="round" stroke-width="2"/>
  <path id="ssvg:0021-s2" d="M15.334,20.06S25.68,18.726,30.475,19.5" fill="none" stroke="#231f20" stroke-linecap="round" stroke-linejoin="round" stroke-width="2"/>
  <path id="ssvg:0021-s3" d="M14.654,16.032s18.33-3.1,19.95,4.028" fill="none" stroke="#231f20" stroke-linecap="round" stroke-linejoin="round" stroke-width="2"/>
  <path id="ssvg:0021-s4" d="M14.654,23.393a23.423,23.423,0,0,1,18.428,0" fill="none" stroke="#231f20" stroke-linecap="round" stroke-linejoin="round" stroke-width="2"/>
  <line id="ssvg:0021-s5" x1="24.615" y1="10.02" x2="24.159" y2="31.418" fill="none" stroke="#231f20" stroke-linecap="round" stroke-linejoin="round" stroke-width="2"/>
  <path id="ssvg:0021-s6" d="M20.817,30.64s-1.9,6.018,3.8,6.1,4.624-4.423,4.023-6.1" fill="none" stroke="#231f20" stroke-linecap="round" stroke-linejoin="round" stroke-width="2"/>
  <line id="ssvg:0021-s7" x1="20.817" y1="32.123" x2="28.638" y2="32.123" fill="none" stroke="#231f20" stroke-linecap="round" stroke-linejoin="round" stroke-width="2"/>
  <line id="ssvg:0021-s8" x1="23.218" y1="34.318" x2="26.643" y2="34.318" fill="none" stroke="#231f20" stroke-linecap="round" stroke-linejoin="round" stroke-width="2"/>
  <path id="ssvg:0021-s9" d="M31.053,22.614s1.169,5.732-5.453,5.435S15.01,40.562,15.01,40.562" fill="none" stroke="#231f20" stroke-linecap="round" stroke-linejoin="round" stroke-width="2"/>
  <path id="ssvg:0021-s10" d="M17.52,22.614S15.973,28,23.868,28.53,35.3,31.109,35.966,40" fill="none" stroke="#231f20" stroke-linecap="round" stroke-linejoin="round" stroke-width="2"/>
  <line id="ssvg:0021-s11" x1="20.817" y1="24.535" x2="21.164" y2="27.371" fill="none" stroke="#231f20" stroke-linecap="round" stroke-linejoin="round" stroke-width="2"/>
  <polyline id="ssvg:0021-s12" points="21.164 24.343 27.803 24.706 27.158 27.371" fill="none" stroke="#231f20" stroke-linecap="round" stroke-linejoin="round" stroke-width="2"/>
</svg>
