<svg xmlns="http://www.w3.org/2000/svg" width="512" height="512" viewBox="0 0 51.2 51.2">
  <line id="ssvg:0022-s1" x1="15.625" y1="13.702" x2="24.116" y2="14.13" fill="none" stroke="#231f20" stroke-linecap="round" stroke-linejoin="round" stroke-width="2"/>
  <line id="ssvg:0022-s2" x1="15.625" y1="16.536" x2="24.389" y2="17.38" fill="none" stroke="#231f20" stroke-linecap="round" stroke-linejoin="round" stroke-width="2"/>
  <path id="ssvg:0022-s3" d="M16.105,20.368s2.123,2.463,7.03.105" fill="none" stroke="#231f20" stroke-linecap="round" stroke-linejoin="round" stroke-width="2"/>
  <path id="ssvg:0022-s4" d="M17.48,17.328s2.576,4.366,2.352,8.272" fill="none" stroke="#231f20" stroke-linecap="round" stroke-linejoin="round" stroke-width="2"/>
  <line id="ssvg:0022-s5" x1="21.59" y1="17.38" x2="19.62" y2="21.058" fill="none" stroke="#231f20" stroke-linecap="round" stroke-linejoin="round" stroke-width="2"/>
  <path id="ssvg:0022-s6" d="M16.545,24.723s-1.614,8.646,2.614,8.4,4.435-5.109,3.976-8.4" fill="none" stroke="#231f20" stroke-linecap="round" stroke-linejoin="round" stroke-width="2"/>
  <line id="ssvg:0022-s7" x1="17.353" y1="29.388" x2="21.123" y2="29.968" fill="none" stroke="#231f20" stroke-linecap="round" stroke-linejoin="round" stroke-width="2"/>
  <path id="ssvg:0022-s8" d="M27.994,11.226s0,1.865,2.6,2.9" fill="none" stroke="#231f20" stroke-linecap="round" stroke-linejoin="round" stroke-width="2"/>
  <path id="ssvg:0022-s9" d="M35.364,11.838s-.165,1.268-2.891,2.292" fill="none" stroke="#231f20" stroke-linecap="round" stroke-linejoin="round" stroke-width="2"/>
  <path id="ssvg:0022-s10" d="M26.38,14.976s6.087-1.866,9.564,0" fill="none" stroke="#231f20" stroke-linecap="round" stroke-linejoin="round" stroke-width="2"/>
  <path id="ssvg:0022-s11" d="M31.524,11.226s-.378,5.65-3.94,5.31" fill="none" stroke="#231f20" stroke-linecap="round" stroke-linejoin="round" stroke-width="2"/>
  <path id="ssvg:0022-s12" d="M31.524,12.427s.192,4.016,3.84,4.778" fill="none" stroke="#231f20" stroke-linecap="round" stroke-linejoin="round" stroke-width="2"/>
  <path id="ssvg:0022-s13" d="M26.162,19.328s-.906,3.052-.293,4.161" fill="none" stroke="#231f20" stroke-linecap="round" stroke-linejoin="round" stroke-width="2"/>
  <path id="ssvg:0022-s14" d="M26.414,18.266s10.4-.065,10.319,2.665-1.369,3.163-1.369,3.163" fill="none" stroke="#231f20" stroke-linecap="round" stroke-linejoin="round" stroke-width="2"/>
  <path id="ssvg:0022-s15" d="M29.763,19.219s.147,1.736-3,1.437" fill="none" stroke="#231f20" stroke-linecap="round" stroke-linejoin="round" stroke-width="2"/>
  <path id="ssvg:0022-s16" d="M32.473,19.848s.367,1.335,2.891,1.616" fill="none" stroke="#231f20" stroke-linecap="round" stroke-linejoin="round" stroke-width="2"/>
  <path id="ssvg:0022-s17" d="M26.414,24.094s2.393.681,4.184-2.58c0,0-.266,1.983,3.972,2.639" fill="none" stroke="#231f20" stroke-linecap="round" stroke-linejoin="round" stroke-width="2"/>
  <path id="ssvg:0022-s18" d="M27.249,26.585a21.972,21.972,0,0,0-.349,5.664" fill="none" stroke="#231f20" stroke-linecap="round" stroke-linejoin="round" stroke-width="2"/>
  <path id="ssvg:0022-s19" d="M27.249,26.136s7.781-1.327,7.321,1.941-.582,5.051-.582,5.051" fill="none" stroke="#231f20" stroke-linecap="round" stroke-linejoin="round" stroke-width="2"/>
  <line id="ssvg:0022-s20" x1="27.994" y1="27.602" x2="33.444" y2="28.281" fill="none" stroke="#231f20" stroke-linecap="round" stroke-linejoin="round" stroke-width="2"/>
  <line id="ssvg:0022-s21" x1="27.715" y1="29.968" x2="33.249" y2="30.849" fill="none" stroke="#231f20" stroke-linecap="round" stroke-linejoin="round" stroke-width="2"/>
  <line id="ssvg:0022-s22" x1="27.994" y1="32.249" x2="33.249" y2="33.123" fill="none" stroke="#231f20" stroke-linecap="round" stroke-linejoin="round" stroke-width="2"/>
  <path id="ssvg:0022-s23" d="M29.618,33.8s-.359,4.7-1.354,6.332" fill="none" stroke="#231f20" stroke-linecap="round" stroke-linejoin="round" stroke-width="2"/>
  <path id="ssvg:0022-s24" d="M32.209,34.272s1.108,5.141,2.271,5.856" fill="none" stroke="#231f20" stroke-linecap="round" stroke-linejoin="round" stroke-width="2"/>
</svg>
