<svg xmlns="http://www.w3.org/2000/svg" width="512" height="512" viewBox="0 0 51.2 51.2">
  <path id="ssvg:0024-s1" d="M19.83,13.677s4.615,2.565,5.9,2.144c0,0,1.019,3.18-2.951,4.085s-7.647,7.013-8.823,16.375" fill="none" stroke="#231f20" stroke-linecap="round" stroke-linejoin="round" stroke-width="2"/>
  <path id="ssvg:0024-s2" d="M25.733,18.885s6.357.815,7.748,2.758,3.76,14.638,3.76,14.638" fill="none" stroke="#231f20" stroke-linecap="round" stroke-linejoin="round" stroke-width="2"/>
  <path id="ssvg:0024-s3" d="M24.615,22.106s.353,3.662-5.638,5.174" fill="none" stroke="#231f20" stroke-linecap="round" stroke-linejoin="round" stroke-width="2"/>
  <path id="ssvg:0024-s4" d="M27.158,22.106s-.024,4.234,5.924,4.643" fill="none" stroke="#231f20" stroke-linecap="round" stroke-linejoin="round" stroke-width="2"/>
  <path id="ssvg:0024-s5" d="M25,26.749S21.5,30.072,18.416,30.3" fill="none" stroke="#231f20" stroke-linecap="round" stroke-linejoin="round" stroke-width="2"/>
  <path id="ssvg:0024-s6" d="M26.682,26.749s2.685,3.753,6.4,3.551" fill="none" stroke="#231f20" stroke-linecap="round" stroke-linejoin="round" stroke-width="2"/>
  <path id="ssvg:0024-s7" d="M22.437,30.3s-.774,7.892,3.116,7.269,3.521-2.524,3.58-7.261" fill="none" stroke="#231f20" stroke-linecap="round" stroke-linejoin="round" stroke-width="2"/>
  <line id="ssvg:0024-s8" x1="23.475" y1="33.387" x2="28.22" y2="33.387" fill="none" stroke="#231f20" stroke-linecap="round" stroke-linejoin="round" stroke-width="2"/>
</svg>
