<svg xmlns="http://www.w3.org/2000/svg" width="512" height="512" viewBox="0 0 51.2 51.2">
  <path id="ssvg:0025-s1" d="M16.893,11.293s-.784,4.6,1.465,6.6,14.55.08,14.55.08" fill="none" stroke="#231f20" stroke-linecap="round" stroke-linejoin="round" stroke-width="2"/>
  <line id="ssvg:0025-s2" x1="34.48" y1="11.293" x2="33.344" y2="17.375" fill="none" stroke="#231f20" stroke-linecap="round" stroke-linejoin="round" stroke-width="2"/>
  <line id="ssvg:0025-s3" x1="20.305" y1="8.751" x2="20.305" y2="16.656" fill="none" stroke="#231f20" stroke-linecap="round" stroke-linejoin="round" stroke-width="2"/>
  <path id="ssvg:0025-s4" d="M23.5,8.751s.527,4.034-2.336,4.859" fill="none" stroke="#231f20" stroke-linecap="round" stroke-linejoin="round" stroke-width="2"/>
  <line id="ssvg:0025-s5" x1="30.763" y1="8.751" x2="31.148" y2="16.656" fill="none" stroke="#231f20" stroke-linecap="round" stroke-linejoin="round" stroke-width="2"/>
  <path id="ssvg:0025-s6" d="M27.1,8.41s1.313,5.034,2.612,5.2" fill="none" stroke="#231f20" stroke-linecap="round" stroke-linejoin="round" stroke-width="2"/>
  <path id="ssvg:0025-s7" d="M25.6,15.047s-4.485,6.214-1.925,11.634,4.875-.691,4.875-.691S28.893,17.123,25.6,15.047Z" fill="none" stroke="#231f20" stroke-linecap="round" stroke-linejoin="round" stroke-width="2"/>
  <path id="ssvg:0025-s8" d="M33.9,19.952s-.707,1.431-3.15,1.376-12.539-1.1-13.257,1.852a8.763,8.763,0,0,0,.866,5.743" fill="none" stroke="#231f20" stroke-linecap="round" stroke-linejoin="round" stroke-width="2"/>
  <path id="ssvg:0025-s9" d="M33.9,21.957s-.074,2.181-3.15,2.692-9.848-.16-12.391,2.032" fill="none" stroke="#231f20" stroke-linecap="round" stroke-linejoin="round" stroke-width="2"/>
  <path id="ssvg:0025-s10" d="M22.886,27.582s-1.672,2.01-1.138,3.927a5.469,5.469,0,0,1-.8,4.791,5.646,5.646,0,0,0-.646,6.229" fill="none" stroke="#231f20" stroke-linecap="round" stroke-linejoin="round" stroke-width="2"/>
  <line id="ssvg:0025-s11" x1="21.255" y1="36.965" x2="22.873" y2="39.777" fill="none" stroke="#231f20" stroke-linecap="round" stroke-linejoin="round" stroke-width="2"/>
  <path id="ssvg:0025-s12" d="M29.2,28.507s2.545,2.762.509,7.074a5.625,5.625,0,0,0,1.439,6.948" fill="none" stroke="#231f20" stroke-linecap="round" stroke-linejoin="round" stroke-width="2"/>
  <line id="ssvg:0025-s13" x1="30.749" y1="36.06" x2="32.209" y2="38.482" fill="none" stroke="#231f20" stroke-linecap="round" stroke-linejoin="round" stroke-width="2"/>
  <line id="ssvg:0025-s14" x1="23.248" y1="31.994" x2="29.388" y2="32.16" fill="none" stroke="#231f20" stroke-linecap="round" stroke-linejoin="round" stroke-width="2"/>
</svg>
