<svg xmlns="http://www.w3.org/2000/svg" width="512" height="512" viewBox="0 0 51.2 51.2">
  <path id="ssvg:0028-s1" d="M21.161,11.626s2.981,3.2,4.439,3.2" fill="none" stroke="#231f20" stroke-linecap="round" stroke-linejoin="round" stroke-width="2"/>
  <path id="ssvg:0028-s2" d="M30.109,11.626s-.327,2.248-4.086,2.786" fill="none" stroke="#231f20" stroke-linecap="round" stroke-linejoin="round" stroke-width="2"/>
  <path id="ssvg:0028-s3" d="M35.145,14.412s.478.206-2.308.412-14.963,1.544-14.963,1.544-5.448,1.064-.722,7.228" fill="none" stroke="#231f20" stroke-linecap="round" stroke-linejoin="round" stroke-width="2"/>
  <path id="ssvg:0028-s4" d="M35.177,15.237s1.189,2.312-3.155,2.756S19.6,19.117,16.415,21.357" fill="none" stroke="#231f20" stroke-linecap="round" stroke-linejoin="round" stroke-width="2"/>
  <path id="ssvg:0028-s5" d="M22.873,16.368s-.822,7.4,3.075,6.692,3.394-4,3.252-6.921" fill="none" stroke="#231f20" stroke-linecap="round" stroke-linejoin="round" stroke-width="2"/>
  <path id="ssvg:0028-s6" d="M23.113,22.785a4.687,4.687,0,0,1-3.072,2.032c-2.167.43.826,1.836-2.167,5.673s-1.857,7.14,0,8.585" fill="none" stroke="#231f20" stroke-linecap="round" stroke-linejoin="round" stroke-width="2"/>
  <line id="ssvg:0028-s7" x1="17.874" y1="31.935" x2="19.624" y2="36.044" fill="none" stroke="#231f20" stroke-linecap="round" stroke-linejoin="round" stroke-width="2"/>
  <path id="ssvg:0028-s8" d="M29.889,21.964s4.083,1.147,2.948,7.994,2.308,9.117,2.308,9.117" fill="none" stroke="#231f20" stroke-linecap="round" stroke-linejoin="round" stroke-width="2"/>
  <line id="ssvg:0028-s9" x1="33.353" y1="30.122" x2="36.346" y2="34.492" fill="none" stroke="#231f20" stroke-linecap="round" stroke-linejoin="round" stroke-width="2"/>
  <path id="ssvg:0028-s10" d="M20.557,27.219s7.913-2.136,10.922-.764" fill="none" stroke="#231f20" stroke-linecap="round" stroke-linejoin="round" stroke-width="2"/>
  <line id="ssvg:0028-s11" x1="22.801" y1="29.168" x2="21.161" y2="31.438" fill="none" stroke="#231f20" stroke-linecap="round" stroke-linejoin="round" stroke-width="2"/>
  <line id="ssvg:0028-s12" x1="25.6" y1="28.309" x2="25.6" y2="31.438" fill="none" stroke="#231f20" stroke-linecap="round" stroke-linejoin="round" stroke-width="2"/>
  <line id="ssvg:0028-s13" x1="28.305" y1="29.168" x2="29.709" y2="30.93" fill="none" stroke="#231f20" stroke-linecap="round" stroke-linejoin="round" stroke-width="2"/>
  <line id="ssvg:0028-s14" x1="22.801" y1="33.99" x2="28.305" y2="33.99" fill="none" stroke="#231f20" stroke-linecap="round" stroke-linejoin="round" stroke-width="2"/>
  <line id="ssvg:0028-s15" x1="23.113" y1="36.247" x2="21.748" y2="39.075" fill="none" stroke="#231f20" stroke-linecap="round" stroke-linejoin="round" stroke-width="2"/>
  <line id="ssvg:0028-s16" x1="25.553" y1="37.011" x2="25.729" y2="39.769" fill="none" stroke="#231f20" stroke-linecap="round" stroke-linejoin="round" stroke-width="2"/>
  <line id="ssvg:0028-s17" x1="29.007" y1="37.011" x2="29.708" y2="39.956" fill="none" stroke="#231f20" stroke-linecap="round" stroke-linejoin="round" stroke-width="2"/>
</svg>
