<svg xmlns="http://www.w3.org/2000/svg" width="512" height="512" viewBox="0 0 51.2 51.2">
  <line id="ssvg:0029-s1" x1="19.366" y1="14.412" x2="25.559" y2="13.019" fill="none" stroke="#231f20" stroke-linecap="round" stroke-linejoin="round" stroke-width="2"/>
  <path id="ssvg:0029-s2" d="M23.762,10.685S35.785,18.42,19.217,40.15" fill="none" stroke="#231f20" stroke-linecap="round" stroke-linejoin="round" stroke-width="2"/>
  <path id="ssvg:0029-s3" d="M27.976,16.139s7.075,2.256,6.869,5.218.005,12.633.005,12.633" fill="none" stroke="#231f20" stroke-linecap="round" stroke-linejoin="round" stroke-width="2"/>
  <line id="ssvg:0029-s4" x1="28.719" y1="20.728" x2="34.205" y2="23.596" fill="none" stroke="#231f20" stroke-linecap="round" stroke-linejoin="round" stroke-width="2"/>
  <line id="ssvg:0029-s5" x1="28.309" y1="24.375" x2="33.566" y2="27.463" fill="none" stroke="#231f20" stroke-linecap="round" stroke-linejoin="round" stroke-width="2"/>
  <path id="ssvg:0029-s6" d="M23.762,16.139s-6.708,1.431-7.2,5.218-.772,10.578-.772,10.578" fill="none" stroke="#231f20" stroke-linecap="round" stroke-linejoin="round" stroke-width="2"/>
  <path id="ssvg:0029-s7" d="M23.762,16.809s-.885,6.885,1.8,10.654" fill="none" stroke="#231f20" stroke-linecap="round" stroke-linejoin="round" stroke-width="2"/>
  <line id="ssvg:0029-s8" x1="17.399" y1="22.162" x2="22.246" y2="20.728" fill="none" stroke="#231f20" stroke-linecap="round" stroke-linejoin="round" stroke-width="2"/>
  <line id="ssvg:0029-s9" x1="17.132" y1="25.964" x2="21.843" y2="24.037" fill="none" stroke="#231f20" stroke-linecap="round" stroke-linejoin="round" stroke-width="2"/>
  <path id="ssvg:0029-s10" d="M21.164,29.874a48.737,48.737,0,0,1-2.982,4.618" fill="none" stroke="#231f20" stroke-linecap="round" stroke-linejoin="round" stroke-width="2"/>
  <path id="ssvg:0029-s11" d="M29.646,29.168s.566,5.815,1.394,6.346" fill="none" stroke="#231f20" stroke-linecap="round" stroke-linejoin="round" stroke-width="2"/>
  <path id="ssvg:0029-s12" d="M25.406,32.826s3.168,6.86,4.24,7.689" fill="none" stroke="#231f20" stroke-linecap="round" stroke-linejoin="round" stroke-width="2"/>
</svg>
