<svg xmlns="http://www.w3.org/2000/svg" width="512" height="512" viewBox="0 0 51.2 51.2">
  <line id="ssvg:0032-s1" x1="20.972" y1="10.316" x2="17.132" y2="15.879" fill="none" stroke="#231f20" stroke-linecap="round" stroke-linejoin="round" stroke-width="2"/>
  <line id="ssvg:0032-s2" x1="21.843" y1="11.607" x2="25.406" y2="15.288" fill="none" stroke="#231f20" stroke-linecap="round" stroke-linejoin="round" stroke-width="2"/>
  <line id="ssvg:0032-s3" x1="20.972" y1="12.632" x2="21.164" y2="15.288" fill="none" stroke="#231f20" stroke-linecap="round" stroke-linejoin="round" stroke-width="2"/>
  <path id="ssvg:0032-s4" d="M30.552,10.316a14.358,14.358,0,0,1-2.576,4.371" fill="none" stroke="#231f20" stroke-linecap="round" stroke-linejoin="round" stroke-width="2"/>
  <line id="ssvg:0032-s5" x1="31.277" y1="11.607" x2="35.561" y2="14.639" fill="none" stroke="#231f20" stroke-linecap="round" stroke-linejoin="round" stroke-width="2"/>
  <line id="ssvg:0032-s6" x1="30.552" y1="13.123" x2="30.552" y2="15.288" fill="none" stroke="#231f20" stroke-linecap="round" stroke-linejoin="round" stroke-width="2"/>
  <path id="ssvg:0032-s7" d="M17.734,20.249s-1.291,11.9-1.947,13.112" fill="none" stroke="#231f20" stroke-linecap="round" stroke-linejoin="round" stroke-width="2"/>
  <path id="ssvg:0032-s8" d="M24.591,18.759s.382,7.762-1.988,7.7a38.09,38.09,0,0,0-5.2.341" fill="none" stroke="#231f20" stroke-linecap="round" stroke-linejoin="round" stroke-width="2"/>
  <line id="ssvg:0032-s9" x1="18.298" y1="20.249" x2="23.311" y2="20.249" fill="none" stroke="#231f20" stroke-linecap="round" stroke-linejoin="round" stroke-width="2"/>
  <line id="ssvg:0032-s10" x1="18.298" y1="23.428" x2="22.771" y2="23.428" fill="none" stroke="#231f20" stroke-linecap="round" stroke-linejoin="round" stroke-width="2"/>
  <path id="ssvg:0032-s11" d="M28.719,18.759S26.262,27.4,34.174,27.2" fill="none" stroke="#231f20" stroke-linecap="round" stroke-linejoin="round" stroke-width="2"/>
  <path id="ssvg:0032-s12" d="M35.561,19.256s-1.36,11.655,0,14.817" fill="none" stroke="#231f20" stroke-linecap="round" stroke-linejoin="round" stroke-width="2"/>
  <line id="ssvg:0032-s13" x1="29.679" y1="19.256" x2="34.205" y2="20.249" fill="none" stroke="#231f20" stroke-linecap="round" stroke-linejoin="round" stroke-width="2"/>
  <line id="ssvg:0032-s14" x1="29.679" y1="22.697" x2="34.394" y2="23.868" fill="none" stroke="#231f20" stroke-linecap="round" stroke-linejoin="round" stroke-width="2"/>
  <path id="ssvg:0032-s15" d="M21.843,31.526s8.3-5.615,8.709.941-4.559,8.519-11.065,9.475" fill="none" stroke="#231f20" stroke-linecap="round" stroke-linejoin="round" stroke-width="2"/>
  <line id="ssvg:0032-s16" x1="26.693" y1="32.467" x2="27.976" y2="35.615" fill="none" stroke="#231f20" stroke-linecap="round" stroke-linejoin="round" stroke-width="2"/>
  <line id="ssvg:0032-s17" x1="23.311" y1="32.467" x2="25.032" y2="38.924" fill="none" stroke="#231f20" stroke-linecap="round" stroke-linejoin="round" stroke-width="2"/>
</svg>
