<svg xmlns="http://www.w3.org/2000/svg" width="512" height="512" viewBox="0 0 51.2 51.2">
  <path id="ssvg:0033-s1" d="M19.213,9.223s5.929,5.765-3.805,8.147" fill="none" stroke="#231f20" stroke-linecap="round" stroke-linejoin="round" stroke-width="2"/>
  <path id="ssvg:0033-s2" d="M14.017,21.884c.3-.145,6.984-2.628,6.984-2.628" fill="none" stroke="#231f20" stroke-linecap="round" stroke-linejoin="round" stroke-width="2"/>
  <path id="ssvg:0033-s3" d="M22.168,19.256a7.7,7.7,0,0,1-7.257,7.408" fill="none" stroke="#231f20" stroke-linecap="round" stroke-linejoin="round" stroke-width="2"/>
  <path id="ssvg:0033-s4" d="M14.017,30.186s-1.493,9.655,8.151,6.786" fill="none" stroke="#231f20" stroke-linecap="round" stroke-linejoin="round" stroke-width="2"/>
  <path id="ssvg:0033-s5" d="M18.051,27.953s-.232,6.367.359,8.289" fill="none" stroke="#231f20" stroke-linecap="round" stroke-linejoin="round" stroke-width="2"/>
  <path id="ssvg:0033-s6" d="M21,27.953s1.5,4.635-1.788,5.892" fill="none" stroke="#231f20" stroke-linecap="round" stroke-linejoin="round" stroke-width="2"/>
  <line id="ssvg:0033-s7" x1="25.324" y1="12.501" x2="32.979" y2="9.223" fill="none" stroke="#231f20" stroke-linecap="round" stroke-linejoin="round" stroke-width="2"/>
  <path id="ssvg:0033-s8" d="M34.281,10.05s3.245,4.342-8.957,7.32" fill="none" stroke="#231f20" stroke-linecap="round" stroke-linejoin="round" stroke-width="2"/>
  <path id="ssvg:0033-s9" d="M28.435,12.5s3.869,4.573,5.106,4.869,3.712,1.6,3.666,9.094" fill="none" stroke="#231f20" stroke-linecap="round" stroke-linejoin="round" stroke-width="2"/>
  <path id="ssvg:0033-s10" d="M26.431,20.249s-1.169,4.669.311,4.917" fill="none" stroke="#231f20" stroke-linecap="round" stroke-linejoin="round" stroke-width="2"/>
  <path id="ssvg:0033-s11" d="M27.241,19.752s9.277-2.483,6.271,5.414" fill="none" stroke="#231f20" stroke-linecap="round" stroke-linejoin="round" stroke-width="2"/>
  <line id="ssvg:0033-s12" x1="27.241" y1="22.782" x2="32.979" y2="22.708" fill="none" stroke="#231f20" stroke-linecap="round" stroke-linejoin="round" stroke-width="2"/>
  <line id="ssvg:0033-s13" x1="30.354" y1="21.114" x2="30.354" y2="25.166" fill="none" stroke="#231f20" stroke-linecap="round" stroke-linejoin="round" stroke-width="2"/>
  <path id="ssvg:0033-s14" d="M27.241,25.273s3.988.952,5.581.327" fill="none" stroke="#231f20" stroke-linecap="round" stroke-linejoin="round" stroke-width="2"/>
  <path id="ssvg:0033-s15" d="M26.431,27.206a25.054,25.054,0,0,0,5.752.462" fill="none" stroke="#231f20" stroke-linecap="round" stroke-linejoin="round" stroke-width="2"/>
  <path id="ssvg:0033-s16" d="M27.772,27.953s.052,1.234-2.928,1.335" fill="none" stroke="#231f20" stroke-linecap="round" stroke-linejoin="round" stroke-width="2"/>
  <path id="ssvg:0033-s17" d="M29.977,28.62S31.212,33.3,26.638,37.5" fill="none" stroke="#231f20" stroke-linecap="round" stroke-linejoin="round" stroke-width="2"/>
  <line id="ssvg:0033-s18" x1="25.324" y1="31.526" x2="25.324" y2="34.672" fill="none" stroke="#231f20" stroke-linecap="round" stroke-linejoin="round" stroke-width="2"/>
  <path id="ssvg:0033-s19" d="M26.308,31.526s7.468,1.542,8.962,0v2.515" fill="none" stroke="#231f20" stroke-linecap="round" stroke-linejoin="round" stroke-width="2"/>
  <path id="ssvg:0033-s20" d="M30.354,33.361s3.093,2.583-1.556,8.145" fill="none" stroke="#231f20" stroke-linecap="round" stroke-linejoin="round" stroke-width="2"/>
  <polyline id="ssvg:0033-s21" points="27.339 39.232 32.183 34.921 37.208 38.311" fill="none" stroke="#231f20" stroke-linecap="round" stroke-linejoin="round" stroke-width="2"/>
  <line id="ssvg:0033-s22" x1="34.672" y1="37.434" x2="36.197" y2="42.791" fill="none" stroke="#231f20" stroke-linecap="round" stroke-linejoin="round" stroke-width="2"/>
  <line id="ssvg:0033-s23" x1="33.206" y1="37.236" x2="32.273" y2="39.548" fill="none" stroke="#231f20" stroke-linecap="round" stroke-linejoin="round" stroke-width="2"/>
  <line id="ssvg:0033-s24" x1="37.584" y1="40.307" x2="39.148" y2="41.01" fill="none" stroke="#231f20" stroke-linecap="round" stroke-linejoin="round" stroke-width="2"/>
  <line id="ssvg:0033-s25" x1="33.819" y1="40.64" x2="32.273" y2="42.791" fill="none" stroke="#231f20" stroke-linecap="round" stroke-linejoin="round" stroke-width="2"/>
</svg>
