<svg xmlns="http://www.w3.org/2000/svg" width="512" height="512" viewBox="0 0 51.2 51.2">
  <line id="ssvg:0035-s1" x1="17.132" y1="8.676" x2="26.693" y2="9.648" fill="none" stroke="#231f20" stroke-linecap="round" stroke-linejoin="round" stroke-width="2"/>
  <line id="ssvg:0035-s2" x1="18.495" y1="9.648" x2="19.052" y2="14.843" fill="none" stroke="#231f20" stroke-linecap="round" stroke-linejoin="round" stroke-width="2"/>
  <line id="ssvg:0035-s3" x1="26.092" y1="10.416" x2="25.032" y2="14.843" fill="none" stroke="#231f20" stroke-linecap="round" stroke-linejoin="round" stroke-width="2"/>
  <line id="ssvg:0035-s4" x1="17.399" y1="15.877" x2="26.693" y2="15.877" fill="none" stroke="#231f20" stroke-linecap="round" stroke-linejoin="round" stroke-width="2"/>
  <path id="ssvg:0035-s5" d="M18.182,17.332s-1.664,8.6,3.222,11.211c0,0,4.209-.759,4.155-10.914" fill="none" stroke="#231f20" stroke-linecap="round" stroke-linejoin="round" stroke-width="2"/>
  <path id="ssvg:0035-s6" d="M18.773,17.629S27.267,24.9,26.54,41.907" fill="none" stroke="#231f20" stroke-linecap="round" stroke-linejoin="round" stroke-width="2"/>
  <path id="ssvg:0035-s7" d="M24.4,17.332s-7.444,8.383-7.269,24.575" fill="none" stroke="#231f20" stroke-linecap="round" stroke-linejoin="round" stroke-width="2"/>
  <path id="ssvg:0035-s8" d="M15.769,27.406S17.941,33.147,19.7,33.3" fill="none" stroke="#231f20" stroke-linecap="round" stroke-linejoin="round" stroke-width="2"/>
  <path id="ssvg:0035-s9" d="M27.19,25.6s-1.4,5.5-3.563,6.674" fill="none" stroke="#231f20" stroke-linecap="round" stroke-linejoin="round" stroke-width="2"/>
  <line id="ssvg:0035-s10" x1="29.659" y1="15.262" x2="35.035" y2="15.262" fill="none" stroke="#231f20" stroke-linecap="round" stroke-linejoin="round" stroke-width="2"/>
  <line id="ssvg:0035-s11" x1="32.347" y1="15.877" x2="32.937" y2="40.642" fill="none" stroke="#231f20" stroke-linecap="round" stroke-linejoin="round" stroke-width="2"/>
</svg>
