<svg xmlns="http://www.w3.org/2000/svg" width="512" height="512" viewBox="0 0 51.2 51.2">
  <path id="ssvg:0041-s1" d="M20.9,8.317s-8.868,13.322-2.255,16.172S23.8,11.337,20.9,8.317Z" fill="none" stroke="#231f20" stroke-linecap="round" stroke-linejoin="round" stroke-width="2"/>
  <line id="ssvg:0041-s2" x1="17.584" y1="17.75" x2="21.058" y2="18.141" fill="none" stroke="#231f20" stroke-linecap="round" stroke-linejoin="round" stroke-width="2"/>
  <path id="ssvg:0041-s3" d="M17.4,24.84s-2.129,7.1,1.054,10.172c0,0,2.964-.893,1.957-10.212" fill="none" stroke="#231f20" stroke-linecap="round" stroke-linejoin="round" stroke-width="2"/>
  <path id="ssvg:0041-s4" d="M35.585,8.317c-.418-.23-12.014,1.17-9.843,6.944s8.83-3.11,8.83-3.11" fill="none" stroke="#231f20" stroke-linecap="round" stroke-linejoin="round" stroke-width="2"/>
  <path id="ssvg:0041-s5" d="M31.649,10.848s-.9,8.7-4.971,13.641" fill="none" stroke="#231f20" stroke-linecap="round" stroke-linejoin="round" stroke-width="2"/>
  <path id="ssvg:0041-s6" d="M30.651,18.141s2.955,7.344-.412,9.144-5.2,7.013-3.049,7.727l3.142-2.13-2.289,10" fill="none" stroke="#231f20" stroke-linecap="round" stroke-linejoin="round" stroke-width="2"/>
</svg>
