<svg xmlns="http://www.w3.org/2000/svg" width="512" height="512" viewBox="0 0 51.2 51.2">
  <path id="ssvg:0048-s1" d="M14.544,8.278s1.232,7.81,4.117,9.291" fill="none" stroke="#231f20" stroke-linecap="round" stroke-linejoin="round" stroke-width="2"/>
  <path id="ssvg:0048-s2" d="M19.181,11.98s-2.7,5.666-2.18,8.752" fill="none" stroke="#231f20" stroke-linecap="round" stroke-linejoin="round" stroke-width="2"/>
  <path id="ssvg:0048-s3" d="M36.85,6.241s-2.221,8.891-5.186,11.521" fill="none" stroke="#231f20" stroke-linecap="round" stroke-linejoin="round" stroke-width="2"/>
  <path id="ssvg:0048-s4" d="M32.11,12.924s2.922,4.58,2.427,6.16" fill="none" stroke="#231f20" stroke-linecap="round" stroke-linejoin="round" stroke-width="2"/>
  <path id="ssvg:0048-s5" d="M23.155,14.936c-.267.687-.743,13.284-.743,13.284" fill="none" stroke="#231f20" stroke-linecap="round" stroke-linejoin="round" stroke-width="2"/>
  <line id="ssvg:0048-s6" x1="28.562" y1="14.003" x2="29.097" y2="29.853" fill="none" stroke="#231f20" stroke-linecap="round" stroke-linejoin="round" stroke-width="2"/>
  <line id="ssvg:0048-s7" x1="24.535" y1="19.983" x2="27.826" y2="20.822" fill="none" stroke="#231f20" stroke-linecap="round" stroke-linejoin="round" stroke-width="2"/>
  <line id="ssvg:0048-s8" x1="23.474" y1="25.6" x2="27.374" y2="25.728" fill="none" stroke="#231f20" stroke-linecap="round" stroke-linejoin="round" stroke-width="2"/>
  <path id="ssvg:0048-s9" d="M17.437,26.458s.841,5.428,3.593,6.907" fill="none" stroke="#231f20" stroke-linecap="round" stroke-linejoin="round" stroke-width="2"/>
  <path id="ssvg:0048-s10" d="M20.483,28.8s-2.6,8.639-1.961,14.122" fill="none" stroke="#231f20" stroke-linecap="round" stroke-linejoin="round" stroke-width="2"/>
  <path id="ssvg:0048-s11" d="M33.781,27.182s-2.687,6.852-5.3,7.853" fill="none" stroke="#231f20" stroke-linecap="round" stroke-linejoin="round" stroke-width="2"/>
  <path id="ssvg:0048-s12" d="M30.553,30.784S33.118,42.156,32.4,44.535" fill="none" stroke="#231f20" stroke-linecap="round" stroke-linejoin="round" stroke-width="2"/>
</svg>
