<svg xmlns="http://www.w3.org/2000/svg" width="512" height="512" viewBox="0 0 51.2 51.2">
  <path id="ssvg:0051-s1" d="M16.6,9.32s2.988,2.234,1.766,4" fill="none" stroke="#231f20" stroke-linecap="round" stroke-linejoin="round" stroke-width="2"/>
  <path id="ssvg:0051-s2" d="M17.633,13.317s-4.695,2.783-3.417,5.875,6.606,0,6.606,0S23.26,14.538,17.633,13.317Z" fill="none" stroke="#231f20" stroke-linecap="round" stroke-linejoin="round" stroke-width="2"/>
  <path id="ssvg:0051-s3" d="M18.058,20.866s-5.506,4.722-2.139,7.72,5.463-1.013,5.463-1.013S23.017,22.389,18.058,20.866Z" fill="none" stroke="#231f20" stroke-linecap="round" stroke-linejoin="round" stroke-width="2"/>
  <line id="ssvg:0051-s4" x1="18.193" y1="30.863" x2="19.233" y2="42.21" fill="none" stroke="#231f20" stroke-linecap="round" stroke-linejoin="round" stroke-width="2"/>
  <path id="ssvg:0051-s5" d="M16.876,31.381a11.141,11.141,0,0,0-2.047,7.835" fill="none" stroke="#231f20" stroke-linecap="round" stroke-linejoin="round" stroke-width="2"/>
  <path id="ssvg:0051-s6" d="M19.644,30.863a12.263,12.263,0,0,1,3.83,8.353" fill="none" stroke="#231f20" stroke-linecap="round" stroke-linejoin="round" stroke-width="2"/>
  <line id="ssvg:0051-s7" x1="23.155" y1="20.866" x2="37.311" y2="20.866" fill="none" stroke="#231f20" stroke-linecap="round" stroke-linejoin="round" stroke-width="2"/>
  <path id="ssvg:0051-s8" d="M24.4,25.282s3.517-1.623,12.454,0" fill="none" stroke="#231f20" stroke-linecap="round" stroke-linejoin="round" stroke-width="2"/>
  <line id="ssvg:0051-s9" x1="30.233" y1="9.937" x2="29.874" y2="24.561" fill="none" stroke="#231f20" stroke-linecap="round" stroke-linejoin="round" stroke-width="2"/>
  <path id="ssvg:0051-s10" d="M27.249,26.954S23.667,34.227,29.1,35.04" fill="none" stroke="#231f20" stroke-linecap="round" stroke-linejoin="round" stroke-width="2"/>
  <path id="ssvg:0051-s11" d="M33.781,26.442s2.1,7.148-3.907,8.857" fill="none" stroke="#231f20" stroke-linecap="round" stroke-linejoin="round" stroke-width="2"/>
  <line id="ssvg:0051-s12" x1="26.883" y1="29.698" x2="33.781" y2="30.863" fill="none" stroke="#231f20" stroke-linecap="round" stroke-linejoin="round" stroke-width="2"/>
</svg>
