<svg xmlns="http://www.w3.org/2000/svg" width="512" height="512" viewBox="0 0 51.2 51.2">
  <path id="ssvg:0052-s1" d="M14.7,14.4s1.307,4.336,4.7,5.4,4.579-3.851,4.579-3.851" fill="none" stroke="#231f20" stroke-linecap="round" stroke-linejoin="round" stroke-width="2"/>
  <path id="ssvg:0052-s2" d="M14.7,20.978s4.419,5.548,9.281,0" fill="none" stroke="#231f20" stroke-linecap="round" stroke-linejoin="round" stroke-width="2"/>
  <path id="ssvg:0052-s3" d="M23.364,10.492s-4.81,1.853-3.112,11.23-4.537,18.639-4.537,18.639" fill="none" stroke="#231f20" stroke-linecap="round" stroke-linejoin="round" stroke-width="2"/>
  <path id="ssvg:0052-s4" d="M25.6,12.569s3.623-1.7,9.959-.566" fill="none" stroke="#231f20" stroke-linecap="round" stroke-linejoin="round" stroke-width="2"/>
  <line id="ssvg:0052-s5" x1="25.979" y1="13.539" x2="26.881" y2="17.18" fill="none" stroke="#231f20" stroke-linecap="round" stroke-linejoin="round" stroke-width="2"/>
  <line id="ssvg:0052-s6" x1="28.739" y1="13.539" x2="29.611" y2="15.954" fill="none" stroke="#231f20" stroke-linecap="round" stroke-linejoin="round" stroke-width="2"/>
  <path id="ssvg:0052-s7" d="M31.368,13.539s2.061,4.222,4.525,4.243" fill="none" stroke="#231f20" stroke-linecap="round" stroke-linejoin="round" stroke-width="2"/>
  <line id="ssvg:0052-s8" x1="26.103" y1="18.673" x2="34.856" y2="19.189" fill="none" stroke="#231f20" stroke-linecap="round" stroke-linejoin="round" stroke-width="2"/>
  <path id="ssvg:0052-s9" d="M25.443,23.353a49.578,49.578,0,0,1,11.221-.815" fill="none" stroke="#231f20" stroke-linecap="round" stroke-linejoin="round" stroke-width="2"/>
  <path id="ssvg:0052-s10" d="M30.48,19.957s-.3,4.781-2.318,6.136-4.282,6.56-4.282,6.56" fill="none" stroke="#231f20" stroke-linecap="round" stroke-linejoin="round" stroke-width="2"/>
  <path id="ssvg:0052-s11" d="M31.091,25.83l3.765,2.44s-1.8,4.374-8.753,2.886" fill="none" stroke="#231f20" stroke-linecap="round" stroke-linejoin="round" stroke-width="2"/>
  <polyline id="ssvg:0052-s12" points="28.739 28.27 32.319 31.156 35.559 40.681" fill="none" stroke="#231f20" stroke-linecap="round" stroke-linejoin="round" stroke-width="2"/>
</svg>
