<svg xmlns="http://www.w3.org/2000/svg" width="512" height="512" viewBox="0 0 51.2 51.2">
  <line id="ssvg:0053-s1" x1="16.778" y1="14.196" x2="23.958" y2="14.403" fill="none" stroke="#231f20" stroke-linecap="round" stroke-linejoin="round" stroke-width="2"/>
  <polyline id="ssvg:0053-s2" points="18.847 8.601 15.582 13.539 15.582 20.895 21.591 22.211" fill="none" stroke="#231f20" stroke-linecap="round" stroke-linejoin="round" stroke-width="2"/>
  <path id="ssvg:0053-s3" d="M16.778,17.5s5.392.2,5.1,2.453-.946,21.649-.946,21.649" fill="none" stroke="#231f20" stroke-linecap="round" stroke-linejoin="round" stroke-width="2"/>
  <path id="ssvg:0053-s4" d="M20.934,24.056S13.646,31.684,13.9,39.808" fill="none" stroke="#231f20" stroke-linecap="round" stroke-linejoin="round" stroke-width="2"/>
  <path id="ssvg:0053-s5" d="M30.182,12.092A12.6,12.6,0,0,1,25.336,17.9" fill="none" stroke="#231f20" stroke-linecap="round" stroke-linejoin="round" stroke-width="2"/>
  <path id="ssvg:0053-s6" d="M31.246,12.569l3.845,3.385s-5.56,1.909-6.608,5.024-1.705,20.628-1.705,20.628" fill="none" stroke="#231f20" stroke-linecap="round" stroke-linejoin="round" stroke-width="2"/>
  <path id="ssvg:0053-s7" d="M28.483,15.954s4.105,5.686,8.539,6.031" fill="none" stroke="#231f20" stroke-linecap="round" stroke-linejoin="round" stroke-width="2"/>
  <line id="ssvg:0053-s8" x1="29.249" y1="21.793" x2="35.94" y2="24.005" fill="none" stroke="#231f20" stroke-linecap="round" stroke-linejoin="round" stroke-width="2"/>
  <line id="ssvg:0053-s9" x1="29.249" y1="25.426" x2="35.94" y2="27.087" fill="none" stroke="#231f20" stroke-linecap="round" stroke-linejoin="round" stroke-width="2"/>
  <line id="ssvg:0053-s10" x1="28.483" y1="28.647" x2="36.565" y2="32.154" fill="none" stroke="#231f20" stroke-linecap="round" stroke-linejoin="round" stroke-width="2"/>
  <path id="ssvg:0053-s11" d="M33.743,20.978a33.967,33.967,0,0,0-1.837,9.155" fill="none" stroke="#231f20" stroke-linecap="round" stroke-linejoin="round" stroke-width="2"/>
</svg>
