<svg xmlns="http://www.w3.org/2000/svg" width="512" height="512" viewBox="0 0 51.2 51.2">
  <line id="ssvg:0054-s1" x1="19.644" y1="9.882" x2="14.829" y2="17.18" fill="none" stroke="#231f20" stroke-linecap="round" stroke-linejoin="round" stroke-width="2"/>
  <line id="ssvg:0054-s2" x1="20.591" y1="12.092" x2="23.94" y2="15.66" fill="none" stroke="#231f20" stroke-linecap="round" stroke-linejoin="round" stroke-width="2"/>
  <line id="ssvg:0054-s3" x1="19.644" y1="13.531" x2="19.644" y2="17.18" fill="none" stroke="#231f20" stroke-linecap="round" stroke-linejoin="round" stroke-width="2"/>
  <line id="ssvg:0054-s4" x1="29.097" y1="9.882" x2="24.679" y2="13.876" fill="none" stroke="#231f20" stroke-linecap="round" stroke-linejoin="round" stroke-width="2"/>
  <line id="ssvg:0054-s5" x1="29.948" y1="12.569" x2="33.781" y2="15.954" fill="none" stroke="#231f20" stroke-linecap="round" stroke-linejoin="round" stroke-width="2"/>
  <line id="ssvg:0054-s6" x1="28.086" y1="12.569" x2="29.097" y2="17.782" fill="none" stroke="#231f20" stroke-linecap="round" stroke-linejoin="round" stroke-width="2"/>
  <line id="ssvg:0054-s7" x1="15.829" y1="20.895" x2="23.767" y2="20.895" fill="none" stroke="#231f20" stroke-linecap="round" stroke-linejoin="round" stroke-width="2"/>
  <line id="ssvg:0054-s8" x1="16.876" y1="24.056" x2="16.033" y2="29.131" fill="none" stroke="#231f20" stroke-linecap="round" stroke-linejoin="round" stroke-width="2"/>
  <path id="ssvg:0054-s9" d="M17.562,23.444s6.39-.512,5.951,2.386A9.63,9.63,0,0,1,21.8,30.264" fill="none" stroke="#231f20" stroke-linecap="round" stroke-linejoin="round" stroke-width="2"/>
  <line id="ssvg:0054-s10" x1="17.282" y1="26.594" x2="22.265" y2="26.594" fill="none" stroke="#231f20" stroke-linecap="round" stroke-linejoin="round" stroke-width="2"/>
  <line id="ssvg:0054-s11" x1="17.166" y1="29.131" x2="20.822" y2="29.555" fill="none" stroke="#231f20" stroke-linecap="round" stroke-linejoin="round" stroke-width="2"/>
  <line id="ssvg:0054-s12" x1="16.454" y1="33.221" x2="23.474" y2="32.653" fill="none" stroke="#231f20" stroke-linecap="round" stroke-linejoin="round" stroke-width="2"/>
  <line id="ssvg:0054-s13" x1="19.964" y1="19.261" x2="19.826" y2="42.587" fill="none" stroke="#231f20" stroke-linecap="round" stroke-linejoin="round" stroke-width="2"/>
  <path id="ssvg:0054-s14" d="M27.047,19.261A29.438,29.438,0,0,0,32.006,20.9c1.185.074,1.219,4.315,1.219,4.315L29.1,24.739" fill="none" stroke="#231f20" stroke-linecap="round" stroke-linejoin="round" stroke-width="2"/>
  <path id="ssvg:0054-s15" d="M27.814,21.168s-2.678,5.155-1.146,6.333,3.383-.147,3.28,3.423.582,7.763,6.18,11.113" fill="none" stroke="#231f20" stroke-linecap="round" stroke-linejoin="round" stroke-width="2"/>
</svg>
