<svg xmlns="http://www.w3.org/2000/svg" width="512" height="512" viewBox="0 0 51.2 51.2">
  <path id="ssvg:0057-s1" d="M19.084,10.423s-.137,2.569-1.522,3.551a2.236,2.236,0,0,0,1.894,3.953c3.19-.434,4.017-2.542.342-5.371" fill="none" stroke="#231f20" stroke-linecap="round" stroke-linejoin="round" stroke-width="2"/>
  <path id="ssvg:0057-s2" d="M18.994,19.346s-5,5.021.09,6.19S21.865,19.77,18.994,19.346Z" fill="none" stroke="#231f20" stroke-linecap="round" stroke-linejoin="round" stroke-width="2"/>
  <line id="ssvg:0057-s3" x1="19.084" y1="27.059" x2="17.917" y2="39.961" fill="none" stroke="#231f20" stroke-linecap="round" stroke-linejoin="round" stroke-width="2"/>
  <path id="ssvg:0057-s4" d="M17.917,26.65c-.65.114-3.071,5.5-3.069,10.2" fill="none" stroke="#231f20" stroke-linecap="round" stroke-linejoin="round" stroke-width="2"/>
  <path id="ssvg:0057-s5" d="M20.548,27.059s2.111,7.006,1.672,11.316" fill="none" stroke="#231f20" stroke-linecap="round" stroke-linejoin="round" stroke-width="2"/>
  <path id="ssvg:0057-s6" d="M35.361,15.461S22.515,13.31,24.4,17l1.882,3.692" fill="none" stroke="#231f20" stroke-linecap="round" stroke-linejoin="round" stroke-width="2"/>
  <line id="ssvg:0057-s7" x1="28.347" y1="15.826" x2="29.544" y2="19.498" fill="none" stroke="#231f20" stroke-linecap="round" stroke-linejoin="round" stroke-width="2"/>
  <line id="ssvg:0057-s8" x1="30.774" y1="17.001" x2="34.968" y2="20.539" fill="none" stroke="#231f20" stroke-linecap="round" stroke-linejoin="round" stroke-width="2"/>
  <path id="ssvg:0057-s9" d="M28.621,21.02s-7.46,3.291-1.574,10.457" fill="none" stroke="#231f20" stroke-linecap="round" stroke-linejoin="round" stroke-width="2"/>
  <line id="ssvg:0057-s10" x1="29.961" y1="21.217" x2="36.128" y2="24.339" fill="none" stroke="#231f20" stroke-linecap="round" stroke-linejoin="round" stroke-width="2"/>
  <path id="ssvg:0057-s11" d="M33.225,23.979s.564,2.556-2.451,2.2a6.865,6.865,0,0,0-5.174,1.77" fill="none" stroke="#231f20" stroke-linecap="round" stroke-linejoin="round" stroke-width="2"/>
  <path id="ssvg:0057-s12 d="M28.945,23.221s.027,3.921,1.191,4.732.493,3.041-.175,3.8-3.37,5.921,5.4,8.994" fill="none" stroke="#231f20" stroke-linecap="round" stroke-linejoin="round" stroke-width="2"/>
</svg>
