<svg xmlns="http://www.w3.org/2000/svg" width="512" height="512" viewBox="0 0 51.2 51.2">
  <path id="ssvg:0059-s1" d="M33.745,10.2a27.119,27.119,0,0,1-11.922,1.13c-6.326-.828-2.888,6.252-2.888,6.252" fill="none" stroke="#231f20" stroke-linecap="round" stroke-linejoin="round" stroke-width="2"/>
  <line id="ssvg:0059-s2" x1="20.879" y1="12.237" x2="24.67" y2="16.477" fill="none" stroke="#231f20" stroke-linecap="round" stroke-linejoin="round" stroke-width="2"/>
  <line id="ssvg:0059-s3" x1="24.732" y1="12.961" x2="28.249" y2="15.848" fill="none" stroke="#231f20" stroke-linecap="round" stroke-linejoin="round" stroke-width="2"/>
  <path id="ssvg:0059-s4" d="M30.959,12.961s2.546,2.832,1.363,4.623.689,5.18.689,5.18-.55,4.176-4.166.3" fill="none" stroke="#231f20" stroke-linecap="round" stroke-linejoin="round" stroke-width="2"/>
  <path id="ssvg:0059-s5" d="M17.773,24.451s.423-7.112,13.155-6.124" fill="none" stroke="#231f20" stroke-linecap="round" stroke-linejoin="round" stroke-width="2"/>
  <path id="ssvg:0059-s6" d="M21.706,25.619S19.991,20.6,30.959,20.9" fill="none" stroke="#231f20" stroke-linecap="round" stroke-linejoin="round" stroke-width="2"/>
  <path id="ssvg:0059-s7" d="M25.369,23.251s1.542,1.349-1.493,2.533-5.285,7.5-5.285,7.5" fill="none" stroke="#231f20" stroke-linecap="round" stroke-linejoin="round" stroke-width="2"/>
  <path id="ssvg:0059-s8" d="M25.369,26.391s4.062,1.86,5.59,1.877,4.572,2.337,2.786,5.016-2.751,8.648-2.751,8.648" fill="none" stroke="#231f20" stroke-linecap="round" stroke-linejoin="round" stroke-width="2"/>
  <line id="ssvg:0059-s9" x1="25.369" y1="28.268" x2="18.132" y2="36.765" fill="none" stroke="#231f20" stroke-linecap="round" stroke-linejoin="round" stroke-width="2"/>
  <line id="ssvg:0059-s10" x1="27.644" y1="29.291" x2="21.513" y2="38.947" fill="none" stroke="#231f20" stroke-linecap="round" stroke-linejoin="round" stroke-width="2"/>
  <line id="ssvg:0059-s11" x1="30.593" y1="30.964" x2="26.396" y2="39.244" fill="none" stroke="#231f20" stroke-linecap="round" stroke-linejoin="round" stroke-width="2"/>
</svg>
