<svg xmlns="http://www.w3.org/2000/svg" width="512" height="512" viewBox="0 0 51.2 51.2">
  <path id="ssvg:0062-s1" d="M14.838,14.55c.863-.392,19.643.465,19.643.465" fill="none" stroke="#231f20" stroke-linecap="round" stroke-linejoin="round" stroke-width="2"/>
  <line id="ssvg:0062-s2" x1="25.975" y1="7.179" x2="25.369" y2="16.584" fill="none" stroke="#231f20" stroke-linecap="round" stroke-linejoin="round" stroke-width="2"/>
  <line id="ssvg:0062-s3" x1="19.892" y1="19.395" x2="19.467" y2="23.499" fill="none" stroke="#231f20" stroke-linecap="round" stroke-linejoin="round" stroke-width="2"/>
  <path id="ssvg:0062-s4" d="M21.067,19.133S32.053,16.528,32.3,22.012" fill="none" stroke="#231f20" stroke-linecap="round" stroke-linejoin="round" stroke-width="2"/>
  <line id="ssvg:0062-s5" x1="22.848" y1="19.825" x2="24.199" y2="23.532" fill="none" stroke="#231f20" stroke-linecap="round" stroke-linejoin="round" stroke-width="2"/>
  <line id="ssvg:0062-s6" x1="27.36" y1="20.062" x2="28.051" y2="23.456" fill="none" stroke="#231f20" stroke-linecap="round" stroke-linejoin="round" stroke-width="2"/>
  <path id="ssvg:0062-s7" d="M21.067,23.766s3.558,1.268,9.861-.31" fill="none" stroke="#231f20" stroke-linecap="round" stroke-linejoin="round" stroke-width="2"/>
  <path id="ssvg:0062-s8" d="M14.838,19.133S11.611,33.242,31.846,26.6" fill="none" stroke="#231f20" stroke-linecap="round" stroke-linejoin="round" stroke-width="2"/>
  <polyline id="ssvg:0062-s9" points="20.682 29.139 17.044 31.39 16.294 35.674 22.176 35.445" fill="none" stroke="#231f20" stroke-linecap="round" stroke-linejoin="round" stroke-width="2"/>
  <path id="ssvg:0062-s10" d="M23.153,32.406S21.3,45.186,35.8,44.892" fill="none" stroke="#231f20" stroke-linecap="round" stroke-linejoin="round" stroke-width="2"/>
  <path id="ssvg:0062-s11" d="M30.305,29.276s4.153,3.22,2.706,5.2-4.492-.558-4.492-.558" fill="none" stroke="#231f20" stroke-linecap="round" stroke-linejoin="round" stroke-width="2"/>
  <path id="ssvg:0062-s12" d="M27.039,31.382s1.625,4.883-1.367,8.01" fill="none" stroke="#231f20" stroke-linecap="round" stroke-linejoin="round" stroke-width="2"/>
</svg>
