<svg xmlns="http://www.w3.org/2000/svg" width="512" height="512" viewBox="0 0 51.2 51.2">
  <line id="ssvg:0063-s1" x1="17.058" y1="12.679" x2="21.629" y2="12.385" fill="none" stroke="#231f20" stroke-linecap="round" stroke-linejoin="round" stroke-width="2"/>
  <line id="ssvg:0063-s2" x1="15.534" y1="16.05" x2="22.826" y2="16.05" fill="none" stroke="#231f20" stroke-linecap="round" stroke-linejoin="round" stroke-width="2"/>
  <path id="ssvg:0063-s3" d="M20.223,16.608s.537,6.678-1.571,6.555c-2.058-.119-.957-6.555-.957-6.555" fill="none" stroke="#231f20" stroke-linecap="round" stroke-linejoin="round" stroke-width="2"/>
  <polyline id="ssvg:0063-s4" points="22.237 19.881 21.441 26.066 16.196 27.003 15.822 19.89" fill="none" stroke="#231f20" stroke-linecap="round" stroke-linejoin="round" stroke-width="2"/>
  <polyline id="ssvg:0063-s5" points="15.822 29.438 16.852 36.508 20.813 36.696" fill="none" stroke="#231f20" stroke-linecap="round" stroke-linejoin="round" stroke-width="2"/>
  <line id="ssvg:0063-s6" x1="21.909" y1="28.782" x2="21.629" y2="36.321" fill="none" stroke="#231f20" stroke-linecap="round" stroke-linejoin="round" stroke-width="2"/>
  <line id="ssvg:0063-s7" x1="17.401" y1="32.552" x2="20.284" y2="32.552" fill="none" stroke="#231f20" stroke-linecap="round" stroke-linejoin="round" stroke-width="2"/>
  <line id="ssvg:0063-s8" x1="19.029" y1="23.725" x2="18.875" y2="31.779" fill="none" stroke="#231f20" stroke-linecap="round" stroke-linejoin="round" stroke-width="2"/>
  <path id="ssvg:0063-s9" d="M24.833,14.55s3.21,3.234,4.708,0" fill="none" stroke="#231f20" stroke-linecap="round" stroke-linejoin="round" stroke-width="2"/>
  <path id="ssvg:0063-s10" d="M30.993,14.173s1.966,4.6,5.01.377" fill="none" stroke="#231f20" stroke-linecap="round" stroke-linejoin="round" stroke-width="2"/>
  <polyline id="ssvg:0063-s11" points="25.187 18.153 35.816 19.133 35.58 23.725" fill="none" stroke="#231f20" stroke-linecap="round" stroke-linejoin="round" stroke-width="2"/>
  <line id="ssvg:0063-s12" x1="24.11" y1="23.442" x2="34.474" y2="23.725" fill="none" stroke="#231f20" stroke-linecap="round" stroke-linejoin="round" stroke-width="2"/>
  <path id="ssvg:0063-s13" d="M24.578,20.588c.281.047,9.177.351,9.177.351" fill="none" stroke="#231f20" stroke-linecap="round" stroke-linejoin="round" stroke-width="2"/>
  <path id="ssvg:0063-s14" d="M25.187,11.036s3.122-.1,2.732,6.082-1.421,10.821-1,22.855" fill="none" stroke="#231f20" stroke-linecap="round" stroke-linejoin="round" stroke-width="2"/>
  <path id="ssvg:0063-s15" d="M31.508,10.614a3.957,3.957,0,0,1,1.99,5.057c-1.241,3.606,0,24.771,0,24.771" fill="none" stroke="#231f20" stroke-linecap="round" stroke-linejoin="round" stroke-width="2"/>
  <path id="ssvg:0063-s16" d="M26.569,25.38s-2.974-.765-1.991,10.707" fill="none" stroke="#231f20" stroke-linecap="round" stroke-linejoin="round" stroke-width="2"/>
  <path id="ssvg:0063-s17" d="M28,25.528s1.4,1.756,1.164,10.278" fill="none" stroke="#231f20" stroke-linecap="round" stroke-linejoin="round" stroke-width="2"/>
  <path id="ssvg:0063-s18" d="M31.929,25.6s-1.451.232-.936,10.206" fill="none" stroke="#231f20" stroke-linecap="round" stroke-linejoin="round" stroke-width="2"/>
  <path id="ssvg:0063-s19" d="M33.782,25.505S36,27.05,35.816,35.806" fill="none" stroke="#231f20" stroke-linecap="round" stroke-linejoin="round" stroke-width="2"/>
</svg>
