<svg xmlns="http://www.w3.org/2000/svg" width="512" height="512" viewBox="0 0 51.2 51.2">
  <path id="ssvg:0064-s1" d="M24.375,13.744s-7.821.436-7.428,3.451A5.954,5.954,0,0,0,20.224,21.5" fill="none" stroke="#231f20" stroke-linecap="round" stroke-linejoin="round" stroke-width="2"/>
  <path id="ssvg:0064-s2" d="M20.137,11.3s-2.527,4.937.659,6.859,2.661,2.753,2.268,3.583.922,2.106,2.01,2.271" fill="none" stroke="#231f20" stroke-linecap="round" stroke-linejoin="round" stroke-width="2"/>
  <path id="ssvg:0064-s3" d="M24.375,15.265s.917,2.8-2.665,2.716S16.03,24.622,16.6,29.035" fill="none" stroke="#231f20" stroke-linecap="round" stroke-linejoin="round" stroke-width="2"/>
  <path id="ssvg:0064-s4" d="M28.35,13.263s-1.542,8.417,0,10.223a14.194,14.194,0,0,0,4.981.175" fill="none" stroke="#231f20" stroke-linecap="round" stroke-linejoin="round" stroke-width="2"/>
  <path id="ssvg:0064-s5" d="M33.331,13.962s1.368,5.363.48,8.956" fill="none" stroke="#231f20" stroke-linecap="round" stroke-linejoin="round" stroke-width="2"/>
  <line id="ssvg:0064-s6" x1="28.801" y1="18.555" x2="32.675" y2="18.555" fill="none" stroke="#231f20" stroke-linecap="round" stroke-linejoin="round" stroke-width="2"/>
  <path id="ssvg:0064-s7" d="M24.112,26.108S19,25.933,19.285,28.773a2.023,2.023,0,0,0,2.866,1.878" fill="none" stroke="#231f20" stroke-linecap="round" stroke-linejoin="round" stroke-width="2"/>
  <path id="ssvg:0064-s8" d="M27.665,26.105s6.183.46,5.01,3.279A2.95,2.95,0,0,1,28.8,31.132" fill="none" stroke="#231f20" stroke-linecap="round" stroke-linejoin="round" stroke-width="2"/>
  <path id="ssvg:0064-s9" d="M23.765,28.457s-4.109,10.757,10.527,11.15" fill="none" stroke="#231f20" stroke-linecap="round" stroke-linejoin="round" stroke-width="2"/>
  <path id="ssvg:0064-s10" d="M27.665,28.719s2.433,4.728-2.591,6.694" fill="none" stroke="#231f20" stroke-linecap="round" stroke-linejoin="round" stroke-width="2"/>
</svg>
